<svg width="23" height="21" viewBox="0 0 23 21" fill="none" xmlns="http://www.w3.org/2000/svg">
<path d="M21.5103 2.37033H8.57011C8.21435 1.3137 7.21492 0.550293 6.03986 0.550293C4.86479 0.550293 3.86537 1.3137 3.50961 2.37033H1.48975C1.02054 2.37033 0.640137 2.75072 0.640137 3.21994C0.640137 3.68915 1.02054 4.06954 1.48975 4.06954H3.50966C3.86542 5.12617 4.86485 5.88958 6.03991 5.88958C7.21498 5.88958 8.2144 5.12617 8.57016 4.06954H21.5103C21.9796 4.06954 22.3599 3.68915 22.3599 3.21994C22.3599 2.75072 21.9796 2.37033 21.5103 2.37033V2.37033ZM6.03986 4.19036C5.50477 4.19036 5.06943 3.75502 5.06943 3.21994C5.06943 2.68485 5.50477 2.24951 6.03986 2.24951C6.57494 2.24951 7.01028 2.68485 7.01028 3.21994C7.01028 3.75502 6.57494 4.19036 6.03986 4.19036Z" fill="black"/>
<path d="M21.5103 9.65011H19.4904C19.1346 8.59348 18.1351 7.83008 16.9601 7.83008C15.7851 7.83008 14.7857 8.59348 14.4299 9.65011H1.48975C1.02054 9.65011 0.640137 10.0305 0.640137 10.4997C0.640137 10.9689 1.02054 11.3493 1.48975 11.3493H14.4299C14.7857 12.406 15.7852 13.1694 16.9602 13.1694C18.1352 13.1694 19.1347 12.406 19.4904 11.3493H21.5103C21.9796 11.3493 22.3599 10.9689 22.3599 10.4997C22.3599 10.0305 21.9796 9.65011 21.5103 9.65011ZM16.9602 11.4701C16.4251 11.4701 15.9897 11.0348 15.9897 10.4997C15.9897 9.96464 16.4251 9.5293 16.9602 9.5293C17.4953 9.5293 17.9306 9.96464 17.9306 10.4997C17.9306 11.0348 17.4953 11.4701 16.9602 11.4701Z" fill="black"/>
<path d="M21.5103 16.9306H12.2102C11.8545 15.874 10.855 15.1106 9.67998 15.1106C8.50491 15.1106 7.50549 15.874 7.14973 16.9306H1.48975C1.02054 16.9306 0.640137 17.311 0.640137 17.7802C0.640137 18.2495 1.02054 18.6298 1.48975 18.6298H7.14973C7.50549 19.6865 8.50491 20.4499 9.67998 20.4499C10.855 20.4499 11.8545 19.6865 12.2102 18.6298H21.5103C21.9796 18.6298 22.3599 18.2495 22.3599 17.7802C22.3599 17.311 21.9796 16.9306 21.5103 16.9306ZM9.67998 18.7507C9.1449 18.7507 8.70956 18.3154 8.70956 17.7803C8.70956 17.2452 9.1449 16.8099 9.67998 16.8099C10.2151 16.8099 10.6504 17.2452 10.6504 17.7802C10.6504 18.3153 10.2151 18.7507 9.67998 18.7507V18.7507Z" fill="black"/>
</svg>
